<svg version="1.1" id="Layer_1" xmlns="http://www.w3.org/2000/svg" xmlns:xlink="http://www.w3.org/1999/xlink" x="0px" y="0px"
	 width="100%" viewBox="0 0 2794 1358" enable-background="new 0 0 2794 1358" xml:space="preserve">
<path fill="#DBDBDB" opacity="1.000000" stroke="none" 
	d="
M1871.000000,1359.000000 
	C1247.743042,1359.000000 624.486206,1359.000000 1.000000,1359.000000 
	C1.000000,908.631775 1.000000,458.263519 1.345422,7.407838 
	C3.793896,4.946942 5.896948,2.973471 8.000000,1.000000 
	C390.368256,1.000000 772.736511,1.000000 1155.552368,1.468657 
	C1156.334473,24.390144 1156.668701,46.842979 1157.004028,69.295792 
	C1157.011475,69.795334 1157.018555,70.295670 1157.051880,70.793907 
	C1158.366577,90.471138 1159.644043,110.150986 1161.020142,129.823914 
	C1161.621460,138.417892 1162.274902,147.013428 1163.171143,155.580368 
	C1164.669556,169.902344 1166.256348,184.217621 1168.040649,198.506409 
	C1169.742920,212.139755 1171.736694,225.736816 1173.617188,239.347778 
	C1175.067383,249.842926 1176.540405,260.334900 1177.540039,270.904663 
	C1163.248779,270.986145 1149.420776,270.975891 1135.592896,271.000000 
	C1117.473999,271.031586 1107.105713,281.413605 1107.105347,299.503571 
	C1107.103149,393.800323 1107.012817,488.097229 1107.188843,582.393616 
	C1107.219727,598.898621 1105.600708,615.477844 1108.697021,632.161621 
	C1096.485718,632.161621 1084.502075,632.099670 1072.519531,632.184753 
	C1065.280029,632.236145 1062.073730,635.826416 1063.246948,642.468994 
	C1066.023926,658.191162 1068.844360,673.906006 1071.722534,689.609985 
	C1073.160400,697.455261 1074.956909,698.839050 1083.112061,698.839172 
	C1157.749756,698.840271 1232.387451,698.837891 1307.025146,698.848938 
	C1309.017212,698.849243 1311.009399,698.988708 1313.055420,699.425598 
	C1314.249756,702.545593 1315.246460,705.373352 1316.552490,708.050293 
	C1337.529175,751.045288 1359.441284,793.547424 1383.897339,834.689392 
	C1390.672241,846.086670 1397.898682,857.215271 1404.692871,868.601440 
	C1408.058716,874.242249 1410.913818,880.187805 1413.707031,886.208740 
	C1403.724609,889.341064 1397.824951,896.663635 1397.770020,905.838989 
	C1397.709839,915.897095 1403.200928,923.681519 1412.737427,926.264221 
	C1422.314331,928.857727 1429.945557,925.425171 1436.048584,918.074707 
	C1439.044678,922.399658 1441.769775,926.496948 1444.748779,930.400452 
	C1448.798096,935.706421 1453.041504,940.864441 1457.101562,946.539917 
	C1457.001587,955.881531 1457.001587,964.769165 1457.001587,974.093506 
	C1465.746704,974.093506 1473.795776,974.093506 1482.001221,974.093506 
	C1482.001221,976.364990 1482.000122,978.181763 1482.001343,979.998596 
	C1482.013794,998.958679 1481.849487,1017.920959 1482.091797,1036.878052 
	C1482.311401,1054.057495 1490.432007,1066.524780 1504.760742,1071.571411 
	C1517.773804,1076.154663 1531.274780,1073.488525 1545.053589,1074.278198 
	C1545.053589,1070.267578 1545.053589,1067.133179 1545.392212,1064.048828 
	C1547.488892,1065.585205 1549.455566,1066.885254 1550.973389,1068.585815 
	C1569.420166,1089.255005 1587.459106,1110.300659 1606.309937,1130.592651 
	C1620.551636,1145.922974 1635.680054,1160.442017 1650.650024,1175.080566 
	C1666.219116,1190.305054 1682.013184,1205.301270 1697.829346,1220.270020 
	C1704.335205,1226.427490 1711.026978,1232.404175 1717.858887,1238.198242 
	C1734.042603,1251.923706 1750.148315,1265.754395 1766.680786,1279.051270 
	C1785.282959,1294.012695 1804.139038,1308.674194 1823.224243,1323.014282 
	C1837.948120,1334.077393 1853.217529,1344.413330 1868.172485,1355.172485 
	C1869.398315,1356.054565 1870.070557,1357.706055 1871.000000,1359.000000 
M1251.254395,1049.897705 
	C1258.222412,1030.254517 1265.190308,1010.611389 1272.458618,990.121521 
	C1273.283325,992.264587 1273.785767,993.476135 1274.219604,994.711792 
	C1283.076294,1019.940186 1292.000000,1045.145508 1300.684082,1070.433228 
	C1301.814575,1073.725098 1303.298828,1074.705200 1306.668457,1074.593262 
	C1314.657349,1074.327637 1322.666626,1074.330322 1330.655884,1074.589355 
	C1334.181763,1074.703491 1335.843262,1073.691040 1337.044556,1070.195068 
	C1347.190063,1040.669922 1357.573975,1011.226746 1367.869019,981.752930 
	C1371.962524,970.033264 1376.012451,958.298462 1380.222778,946.165222 
	C1369.154785,946.165222 1358.666504,946.334595 1348.188843,946.074219 
	C1344.470093,945.981934 1342.815308,946.904785 1341.615112,950.709656 
	C1333.477905,976.507751 1325.002686,1002.199341 1316.320435,1028.897949 
	C1315.344482,1026.488037 1314.631226,1024.875000 1314.030518,1023.221069 
	C1305.185669,998.870544 1296.303833,974.533203 1287.590088,950.135864 
	C1286.536743,947.186890 1285.254028,945.931152 1281.972290,946.081055 
	C1275.653931,946.369751 1269.300049,946.408569 1262.986694,946.069397 
	C1259.478271,945.880981 1258.124146,947.199585 1256.999023,950.342041 
	C1248.154541,975.044373 1239.124756,999.680481 1230.139160,1024.332275 
	C1229.680664,1025.589966 1229.106445,1026.805420 1228.180176,1029.004028 
	C1219.210083,1000.751160 1210.574707,973.552307 1201.950806,946.389771 
	C1189.593140,946.389771 1177.526489,946.389771 1165.510010,946.389771 
	C1165.427124,946.777771 1165.321289,946.964905 1165.367554,947.100159 
	C1179.585693,988.747803 1193.790405,1030.400024 1208.165283,1071.993408 
	C1208.566040,1073.153320 1210.771973,1074.363770 1212.163940,1074.397217 
	C1221.156128,1074.612915 1230.160156,1074.352173 1239.151123,1074.594727 
	C1242.162476,1074.675781 1243.162476,1073.357056 1243.983521,1070.884277 
	C1246.233398,1064.107666 1248.670410,1057.393311 1251.254395,1049.897705 
M997.130310,1022.500000 
	C997.130310,976.100342 997.130310,929.700684 997.130310,883.385864 
	C984.863403,883.385864 973.161194,883.385864 960.859497,883.385864 
	C960.859497,909.209229 960.859497,934.648376 960.859497,960.126770 
	C957.882935,957.498596 955.453918,954.951416 952.643616,952.935852 
	C929.218994,936.134949 891.620178,942.921082 873.745728,967.282715 
	C859.380432,986.861450 857.398376,1008.947021 863.240173,1031.558105 
	C873.550842,1071.466187 912.690979,1085.228638 943.666870,1072.717896 
	C950.548340,1069.938477 956.315063,1064.399170 962.429565,1060.243164 
	C962.687683,1064.189209 963.008545,1069.094482 963.316528,1073.802368 
	C974.849548,1073.802368 985.913147,1073.802368 997.130310,1073.802368 
	C997.130310,1056.791260 997.130310,1040.145630 997.130310,1022.500000 
M1119.140503,1032.550049 
	C1112.044922,1045.956055 1097.357544,1051.750366 1082.077148,1047.171997 
	C1068.174194,1043.006348 1059.023071,1030.492310 1060.220825,1017.001953 
	C1075.849243,1017.001953 1091.501221,1017.001892 1107.153320,1017.001892 
	C1122.765747,1017.001892 1138.378296,1017.001953 1153.944458,1017.001953 
	C1153.944458,1010.057922 1154.526611,1003.533386 1153.834351,997.147034 
	C1151.822510,978.587219 1144.416748,962.945190 1127.921509,952.722412 
	C1117.096802,946.014038 1105.075806,943.731384 1092.606445,943.625366 
	C1071.963867,943.449951 1053.220581,948.736328 1039.282104,964.984497 
	C1026.001465,980.465942 1022.670898,999.021179 1024.549194,1018.802063 
	C1026.222412,1036.422485 1032.749146,1051.652832 1047.006958,1062.843994 
	C1058.126953,1071.572266 1071.122314,1075.421875 1084.973877,1076.434937 
	C1105.606689,1077.944092 1124.393066,1073.441895 1139.458740,1058.223633 
	C1145.572388,1052.048096 1149.954834,1044.780884 1152.465576,1036.069214 
	C1148.578735,1035.450195 1145.153442,1034.791016 1141.698730,1034.378174 
	C1134.337036,1033.498047 1126.959961,1032.745850 1119.140503,1032.550049 
M804.339294,949.133179 
	C786.756409,942.728943 768.769836,941.864319 750.833374,946.719299 
	C705.966919,958.863770 687.779114,1014.880371 716.610229,1051.801636 
	C730.738159,1069.893921 750.387817,1076.461060 772.476257,1076.746948 
	C809.268921,1077.223145 839.743225,1057.680298 843.458801,1018.161011 
	C846.156494,989.468750 835.230652,961.579163 804.339294,949.133179 
M584.457764,1065.040894 
	C608.292114,1080.607544 642.428467,1080.828613 665.233521,1065.296387 
	C677.752502,1056.769897 685.211975,1044.799316 688.344727,1029.479980 
	C677.065063,1028.211670 666.230530,1026.993408 655.527954,1025.790039 
	C655.007751,1027.022095 654.632690,1027.765015 654.373291,1028.546265 
	C650.254150,1040.954102 641.119873,1046.690430 628.609375,1047.958862 
	C615.355957,1049.302490 604.820068,1044.487305 598.454285,1032.850098 
	C590.807312,1018.871094 590.530029,1004.003235 597.230835,989.615234 
	C605.332947,972.218628 628.592468,966.045776 643.891663,977.488342 
	C649.160217,981.428772 652.478088,987.977356 657.406982,994.250793 
	C666.466858,993.229858 677.177307,992.022949 687.875183,990.817383 
	C687.066467,979.687317 678.816650,964.713562 668.548401,957.400940 
	C643.586060,939.623657 616.704529,939.152588 590.159241,952.227234 
	C546.396484,973.782166 547.183777,1040.436157 584.457764,1065.040894 
M1436.193970,991.500061 
	C1436.193970,976.559509 1436.193970,961.618958 1436.193970,946.424500 
	C1424.033081,946.424500 1412.315308,946.424500 1400.349121,946.424500 
	C1400.349121,989.008301 1400.349121,1031.351807 1400.349121,1073.930054 
	C1412.285767,1073.930054 1424.008301,1073.930054 1435.638916,1073.930054 
	C1435.866211,1073.447876 1436.115723,1073.165283 1436.116089,1072.882446 
	C1436.154297,1046.088379 1436.173462,1019.294250 1436.193970,991.500061 
z"/>
<path fill="#DFDFDF" opacity="1.000000" stroke="none" 
	d="
M1414.000000,885.995483 
	C1410.913818,880.187805 1408.058716,874.242249 1404.692871,868.601440 
	C1397.898682,857.215271 1390.672241,846.086670 1383.897339,834.689392 
	C1359.441284,793.547424 1337.529175,751.045288 1316.552490,708.050293 
	C1315.246460,705.373352 1314.249756,702.545593 1313.515625,699.331543 
	C1356.255371,698.866699 1398.588989,698.823303 1440.921875,698.965027 
	C1442.808716,698.971375 1445.244751,700.204529 1446.448975,701.668945 
	C1448.462158,704.117126 1449.606201,707.261902 1451.256592,710.029846 
	C1460.904663,726.211731 1473.012939,740.335327 1487.719971,752.067993 
	C1511.042847,770.673950 1537.859375,781.698120 1567.355957,784.631592 
	C1581.251831,786.013611 1595.776489,785.130188 1609.577881,782.740967 
	C1692.481201,768.389465 1747.808960,691.762024 1735.823975,608.890503 
	C1726.974609,547.701172 1682.005859,497.619415 1621.932373,482.082458 
	C1618.312988,481.146393 1614.646118,480.393707 1611.007568,479.557098 
	C1611.007568,477.240967 1611.007446,475.411163 1611.007568,473.581360 
	C1611.007812,416.081482 1611.010254,358.581573 1611.007324,301.081696 
	C1611.006226,280.955566 1601.061768,270.991516 1580.991211,270.991302 
	C1448.658081,270.989960 1316.325073,270.990021 1183.991943,270.981812 
	C1181.995728,270.981689 1179.999634,270.881683 1178.003418,270.828278 
	C1176.540405,260.334900 1175.067383,249.842926 1173.617188,239.347778 
	C1171.736694,225.736816 1169.742920,212.139755 1168.040649,198.506409 
	C1166.256348,184.217621 1164.669556,169.902344 1163.171143,155.580368 
	C1162.274902,147.013428 1161.621460,138.417892 1161.020142,129.823914 
	C1159.644043,110.150986 1158.366577,90.471138 1157.051880,70.793907 
	C1157.018555,70.295670 1157.011475,69.795334 1157.004028,69.295792 
	C1156.668701,46.842979 1156.334473,24.390144 1156.000000,1.468657 
	C1702.272583,1.000000 2248.545166,1.000000 2794.908691,1.000000 
	C2794.908691,453.555511 2794.908691,906.111084 2794.908691,1359.000000 
	C2487.312500,1359.000000 2179.624756,1359.000000 1871.468628,1359.000000 
	C1870.070557,1357.706055 1869.398315,1356.054565 1868.172485,1355.172485 
	C1853.217529,1344.413330 1837.948120,1334.077393 1823.224243,1323.014282 
	C1804.139038,1308.674194 1785.282959,1294.012695 1766.680786,1279.051270 
	C1750.148315,1265.754395 1734.042603,1251.923706 1717.858887,1238.198242 
	C1711.026978,1232.404175 1704.335205,1226.427490 1697.829346,1220.270020 
	C1682.013184,1205.301270 1666.219116,1190.305054 1650.650024,1175.080566 
	C1635.680054,1160.442017 1620.551636,1145.922974 1606.309937,1130.592651 
	C1587.459106,1110.300659 1569.420166,1089.255005 1550.973389,1068.585815 
	C1549.455566,1066.885254 1547.488892,1065.585205 1545.296387,1063.589600 
	C1544.861816,1057.815674 1544.861816,1052.551025 1544.861816,1046.992920 
	C1541.770508,1046.992920 1539.294678,1046.993896 1536.818848,1046.992676 
	C1522.837036,1046.985596 1518.352173,1042.572754 1518.291260,1028.508789 
	C1518.223389,1012.864319 1518.275024,997.219177 1518.274658,981.574341 
	C1518.274536,979.126709 1518.274658,976.679077 1518.274658,973.700684 
	C1527.381470,973.700684 1535.944458,973.700684 1544.494507,973.700684 
	C1544.494507,964.269409 1544.494507,955.381470 1544.494507,945.939087 
	C1535.616455,945.939087 1527.071045,945.939087 1518.094727,945.939087 
	C1518.094727,932.003662 1518.094727,918.624512 1518.094727,905.204834 
	C1506.888916,905.204834 1496.141602,905.204834 1485.097900,905.204834 
	C1485.097900,912.853699 1485.287231,920.302734 1485.042114,927.737427 
	C1484.818848,934.506226 1482.248169,940.099731 1475.981689,943.633057 
	C1469.997803,947.007080 1463.549561,945.968201 1457.201660,946.085938 
	C1453.041504,940.864441 1448.798096,935.706421 1444.748779,930.400452 
	C1441.769775,926.496948 1439.044678,922.399658 1436.072388,917.705200 
	C1436.817505,912.292175 1438.958496,907.383728 1438.318237,902.869873 
	C1436.900635,892.877258 1428.351196,884.394592 1414.000000,885.995483 
M1572.519287,1041.499634 
	C1572.519287,1052.266479 1572.519287,1063.033203 1572.519287,1073.950562 
	C1584.673096,1073.950562 1596.261841,1073.950562 1608.311523,1073.950562 
	C1608.311523,1071.950684 1608.311279,1070.167236 1608.311523,1068.383789 
	C1608.314209,1046.883911 1608.297485,1025.384033 1608.330200,1003.884155 
	C1608.341919,996.194519 1609.370239,988.666138 1614.192017,982.362061 
	C1620.797607,973.725891 1630.319336,971.723694 1640.273193,972.947266 
	C1648.313110,973.935669 1655.432251,977.745178 1657.815796,986.437622 
	C1659.060303,990.976379 1659.746948,995.806641 1659.787964,1000.513123 
	C1659.985474,1023.177917 1659.877319,1045.845337 1659.877686,1068.511841 
	C1659.877808,1070.288696 1659.877808,1072.065430 1659.877808,1073.840088 
	C1672.133545,1073.840088 1683.854614,1073.840088 1695.882690,1073.840088 
	C1695.882690,1058.202026 1695.991455,1042.895264 1695.851807,1027.590820 
	C1695.713623,1012.436584 1695.895508,997.246033 1694.877563,982.142822 
	C1693.950439,968.386475 1688.082275,956.774658 1675.476685,949.724365 
	C1655.998779,938.830383 1626.756592,942.940308 1610.936279,958.603333 
	C1610.322876,959.210632 1609.525269,959.631836 1608.087158,960.658081 
	C1608.087158,934.280823 1608.087158,908.725708 1608.087158,883.261108 
	C1595.960693,883.261108 1584.343384,883.261108 1572.519165,883.261108 
	C1572.519165,935.850891 1572.519165,988.175232 1572.519287,1041.499634 
M2107.891357,1036.611084 
	C2112.086914,1043.332886 2115.339844,1050.939819 2120.659668,1056.605835 
	C2134.999268,1071.878662 2153.795898,1076.928711 2174.155762,1076.762695 
	C2193.222412,1076.607178 2210.873535,1071.733154 2224.850830,1058.067261 
	C2241.909180,1041.389282 2245.694824,1020.406555 2242.426270,997.719666 
	C2239.659424,978.511841 2230.228760,963.372925 2213.208008,953.562439 
	C2197.612305,944.573303 2180.547607,942.583069 2162.979492,944.377502 
	C2147.371582,945.971680 2132.895264,951.007690 2121.798340,962.518005 
	C2101.321777,983.757263 2099.414307,1008.920593 2107.891357,1036.611084 
M1890.452759,1006.935303 
	C1889.277954,1007.554749 1888.112061,1008.191528 1886.927246,1008.791260 
	C1866.946899,1018.905396 1864.226807,1038.670654 1869.889648,1055.655273 
	C1872.372192,1063.100952 1877.521118,1068.426147 1884.510986,1071.935791 
	C1895.742432,1077.575195 1907.575806,1077.781128 1919.594849,1075.520508 
	C1930.380371,1073.491943 1940.110718,1069.200684 1948.232178,1060.535645 
	C1949.374756,1065.556763 1950.343750,1069.815063 1951.265625,1073.866089 
	C1962.661133,1073.866089 1973.589233,1073.866089 1984.626465,1073.866089 
	C1984.689697,1072.919678 1984.899902,1072.235352 1984.750854,1071.641113 
	C1980.930054,1056.417969 1981.817261,1040.884644 1981.642456,1025.418945 
	C1981.482422,1011.265381 1981.696777,997.089966 1980.960205,982.965149 
	C1980.021851,964.971436 1969.935913,952.247681 1952.709106,947.171326 
	C1935.207153,942.013733 1917.377808,942.250305 1899.994141,947.426758 
	C1883.040405,952.475220 1872.583496,964.130798 1869.067749,982.249329 
	C1879.733521,984.186523 1890.110107,986.071167 1900.642334,987.984131 
	C1902.372803,978.236938 1907.266602,971.177002 1916.892334,969.695679 
	C1923.288086,968.711426 1930.087158,969.417297 1936.566040,970.343567 
	C1939.335815,970.739563 1942.304077,973.161194 1944.222412,975.462341 
	C1950.230469,982.669189 1947.601318,990.996582 1938.725952,993.834900 
	C1936.041748,994.693359 1933.267700,995.268616 1930.542480,996.002258 
	C1917.407837,999.538208 1904.275879,1003.083984 1890.452759,1006.935303 
M1811.625000,1073.072998 
	C1834.295654,1066.602173 1849.022339,1046.172363 1850.401245,1029.405396 
	C1839.684814,1028.202393 1828.963623,1026.998779 1818.291138,1025.800659 
	C1817.805542,1026.684082 1817.413574,1027.233765 1817.180786,1027.844116 
	C1811.846313,1041.832642 1803.500122,1047.626343 1787.925537,1048.127686 
	C1775.404175,1048.530884 1764.239868,1041.599976 1759.252075,1029.523193 
	C1754.018311,1016.850708 1753.709351,1003.801270 1759.078125,991.095642 
	C1764.317383,978.696289 1774.120117,972.324036 1787.584229,972.055115 
	C1800.080322,971.805420 1809.924683,976.538452 1815.643921,988.197876 
	C1816.584229,990.114807 1817.234497,992.173950 1818.136963,994.467834 
	C1829.115845,993.223022 1839.960815,991.993469 1851.058472,990.735168 
	C1846.490234,971.737427 1836.411743,957.803040 1818.651245,949.791687 
	C1807.573853,944.795044 1795.970581,943.610168 1784.032715,943.914001 
	C1746.443604,944.870667 1719.947266,971.757141 1719.655762,1009.309509 
	C1719.429565,1038.453003 1733.195923,1060.586182 1759.047729,1071.243164 
	C1775.906860,1078.193115 1793.349121,1078.678101 1811.625000,1073.072998 
M2016.388794,991.499756 
	C2016.388794,1018.926270 2016.388794,1046.352783 2016.388794,1073.965332 
	C2028.655518,1073.965332 2040.416138,1073.965332 2052.635742,1073.965332 
	C2052.635742,1071.962524 2052.628662,1070.176147 2052.636719,1068.389893 
	C2052.733154,1047.239868 2052.425293,1026.077515 2053.064453,1004.943848 
	C2053.537354,989.305542 2062.483643,980.219849 2077.956299,977.994995 
	C2082.692871,977.313843 2087.475098,976.949951 2092.492676,976.413391 
	C2092.492676,965.976196 2092.492676,955.597351 2092.492676,944.723206 
	C2075.613770,945.328796 2062.005615,951.893616 2050.716309,965.619934 
	C2050.716309,958.495361 2050.716309,952.454285 2050.716309,946.402222 
	C2039.092651,946.402222 2028.006470,946.402222 2016.388916,946.402222 
	C2016.388916,961.267151 2016.388916,975.883423 2016.388794,991.499756 
z"/>
<path fill="#DFDFDF" opacity="1.000000" stroke="none" 
	d="
M7.502095,1.000000 
	C5.896948,2.973471 3.793896,4.946942 1.345422,6.960206 
	C1.000000,5.079329 1.000000,3.158659 1.000000,1.000000 
	C2.998669,1.000000 5.001430,1.000000 7.502095,1.000000 
z"/>
<path fill="#030303" opacity="1.000000" stroke="none" 
	d="
M1177.540039,270.904663 
	C1179.999634,270.881683 1181.995728,270.981689 1183.991943,270.981812 
	C1316.325073,270.990021 1448.658081,270.989960 1580.991211,270.991302 
	C1601.061768,270.991516 1611.006226,280.955566 1611.007324,301.081696 
	C1611.010254,358.581573 1611.007812,416.081482 1611.007568,473.581360 
	C1611.007446,475.411163 1611.007568,477.240967 1611.007568,479.557098 
	C1614.646118,480.393707 1618.312988,481.146393 1621.932373,482.082458 
	C1682.005859,497.619415 1726.974609,547.701172 1735.823975,608.890503 
	C1747.808960,691.762024 1692.481201,768.389465 1609.577881,782.740967 
	C1595.776489,785.130188 1581.251831,786.013611 1567.355957,784.631592 
	C1537.859375,781.698120 1511.042847,770.673950 1487.719971,752.067993 
	C1473.012939,740.335327 1460.904663,726.211731 1451.256592,710.029846 
	C1449.606201,707.261902 1448.462158,704.117126 1446.448975,701.668945 
	C1445.244751,700.204529 1442.808716,698.971375 1440.921875,698.965027 
	C1398.588989,698.823303 1356.255371,698.866699 1313.461670,698.969116 
	C1311.009399,698.988708 1309.017212,698.849243 1307.025146,698.848938 
	C1232.387451,698.837891 1157.749756,698.840271 1083.112061,698.839172 
	C1074.956909,698.839050 1073.160400,697.455261 1071.722534,689.609985 
	C1068.844360,673.906006 1066.023926,658.191162 1063.246948,642.468994 
	C1062.073730,635.826416 1065.280029,632.236145 1072.519531,632.184753 
	C1084.502075,632.099670 1096.485718,632.161621 1108.697021,632.161621 
	C1105.600708,615.477844 1107.219727,598.898621 1107.188843,582.393616 
	C1107.012817,488.097229 1107.103149,393.800323 1107.105347,299.503571 
	C1107.105713,281.413605 1117.473999,271.031586 1135.592896,271.000000 
	C1149.420776,270.975891 1163.248779,270.986145 1177.540039,270.904663 
M1561.500000,286.172058 
	C1419.868530,286.173431 1278.237061,286.173645 1136.605591,286.178284 
	C1125.793579,286.178619 1122.324829,289.670197 1122.324707,300.549255 
	C1122.322510,406.356415 1122.323608,512.163574 1122.328979,617.970703 
	C1122.329468,628.903076 1125.628784,632.152405 1136.720337,632.152893 
	C1232.529907,632.157166 1328.339600,632.156250 1424.149170,632.156860 
	C1425.911987,632.156860 1427.674805,632.156860 1429.696411,632.156860 
	C1429.867554,586.723389 1446.195190,548.704163 1479.053589,518.351257 
	C1511.846680,488.058746 1551.075684,474.943695 1595.869629,477.725708 
	C1595.869629,465.101105 1595.869263,452.789825 1595.869629,440.478546 
	C1595.870850,393.490173 1595.884277,346.501801 1595.863525,299.513428 
	C1595.859375,290.024902 1591.998169,286.218109 1582.494995,286.177887 
	C1575.830078,286.149689 1569.165039,286.172211 1561.500000,286.172058 
M1621.578003,497.780304 
	C1614.567261,496.434021 1607.611328,494.556427 1600.536987,493.826111 
	C1547.548828,488.356049 1504.316895,506.758179 1472.034790,548.881714 
	C1448.157837,580.037781 1440.863281,615.855347 1446.892822,654.555115 
	C1458.365723,728.194275 1531.648438,781.004089 1605.006836,768.334106 
	C1636.145020,762.956055 1662.664062,749.029480 1684.647949,726.125671 
	C1724.212891,684.904907 1733.866211,619.275391 1707.483765,568.571838 
	C1689.013428,533.074402 1660.413696,509.834961 1621.578003,497.780304 
M1219.500366,647.509216 
	C1173.087524,647.509216 1126.674683,647.509216 1079.639771,647.509216 
	C1081.853394,660.011902 1083.949707,671.852478 1086.023926,683.568604 
	C1203.918091,683.568604 1321.238647,683.568604 1438.185913,683.568604 
	C1435.838135,673.213867 1433.036865,663.111267 1431.442261,652.821655 
	C1430.706543,648.074402 1428.979858,647.424988 1424.878418,647.431274 
	C1356.752563,647.535645 1288.626465,647.507629 1219.500366,647.509216 
z"/>
<path fill="#020202" opacity="1.000000" stroke="none" 
	d="
M1251.143799,1050.276001 
	C1248.670410,1057.393311 1246.233398,1064.107666 1243.983521,1070.884277 
	C1243.162476,1073.357056 1242.162476,1074.675781 1239.151123,1074.594727 
	C1230.160156,1074.352173 1221.156128,1074.612915 1212.163940,1074.397217 
	C1210.771973,1074.363770 1208.566040,1073.153320 1208.165283,1071.993408 
	C1193.790405,1030.400024 1179.585693,988.747803 1165.367554,947.100159 
	C1165.321289,946.964905 1165.427124,946.777771 1165.510010,946.389771 
	C1177.526489,946.389771 1189.593140,946.389771 1201.950806,946.389771 
	C1210.574707,973.552307 1219.210083,1000.751160 1228.180176,1029.004028 
	C1229.106445,1026.805420 1229.680664,1025.589966 1230.139160,1024.332275 
	C1239.124756,999.680481 1248.154541,975.044373 1256.999023,950.342041 
	C1258.124146,947.199585 1259.478271,945.880981 1262.986694,946.069397 
	C1269.300049,946.408569 1275.653931,946.369751 1281.972290,946.081055 
	C1285.254028,945.931152 1286.536743,947.186890 1287.590088,950.135864 
	C1296.303833,974.533203 1305.185669,998.870544 1314.030518,1023.221069 
	C1314.631226,1024.875000 1315.344482,1026.488037 1316.320435,1028.897949 
	C1325.002686,1002.199341 1333.477905,976.507751 1341.615112,950.709656 
	C1342.815308,946.904785 1344.470093,945.981934 1348.188843,946.074219 
	C1358.666504,946.334595 1369.154785,946.165222 1380.222778,946.165222 
	C1376.012451,958.298462 1371.962524,970.033264 1367.869019,981.752930 
	C1357.573975,1011.226746 1347.190063,1040.669922 1337.044556,1070.195068 
	C1335.843262,1073.691040 1334.181763,1074.703491 1330.655884,1074.589355 
	C1322.666626,1074.330322 1314.657349,1074.327637 1306.668457,1074.593262 
	C1303.298828,1074.705200 1301.814575,1073.725098 1300.684082,1070.433228 
	C1292.000000,1045.145508 1283.076294,1019.940186 1274.219604,994.711792 
	C1273.785767,993.476135 1273.283325,992.264587 1272.458618,990.121521 
	C1265.190308,1010.611389 1258.222412,1030.254517 1251.143799,1050.276001 
z"/>
<path fill="#010101" opacity="1.000000" stroke="none" 
	d="
M997.130310,1023.000000 
	C997.130310,1040.145630 997.130310,1056.791260 997.130310,1073.802368 
	C985.913147,1073.802368 974.849548,1073.802368 963.316528,1073.802368 
	C963.008545,1069.094482 962.687683,1064.189209 962.429565,1060.243164 
	C956.315063,1064.399170 950.548340,1069.938477 943.666870,1072.717896 
	C912.690979,1085.228638 873.550842,1071.466187 863.240173,1031.558105 
	C857.398376,1008.947021 859.380432,986.861450 873.745728,967.282715 
	C891.620178,942.921082 929.218994,936.134949 952.643616,952.935852 
	C955.453918,954.951416 957.882935,957.498596 960.859497,960.126770 
	C960.859497,934.648376 960.859497,909.209229 960.859497,883.385864 
	C973.161194,883.385864 984.863403,883.385864 997.130310,883.385864 
	C997.130310,929.700684 997.130310,976.100342 997.130310,1023.000000 
M937.733582,974.319641 
	C922.985779,971.989197 910.622192,975.818420 902.104858,988.685181 
	C893.984985,1000.951416 894.413879,1021.040894 902.728760,1033.227661 
	C915.674194,1052.201172 944.402527,1052.156616 957.597595,1033.324829 
	C969.961670,1015.678955 965.323975,980.924194 937.733582,974.319641 
z"/>
<path fill="#020202" opacity="1.000000" stroke="none" 
	d="
M1119.364868,1032.245605 
	C1126.959961,1032.745850 1134.337036,1033.498047 1141.698730,1034.378174 
	C1145.153442,1034.791016 1148.578735,1035.450195 1152.465576,1036.069214 
	C1149.954834,1044.780884 1145.572388,1052.048096 1139.458740,1058.223633 
	C1124.393066,1073.441895 1105.606689,1077.944092 1084.973877,1076.434937 
	C1071.122314,1075.421875 1058.126953,1071.572266 1047.006958,1062.843994 
	C1032.749146,1051.652832 1026.222412,1036.422485 1024.549194,1018.802063 
	C1022.670898,999.021179 1026.001465,980.465942 1039.282104,964.984497 
	C1053.220581,948.736328 1071.963867,943.449951 1092.606445,943.625366 
	C1105.075806,943.731384 1117.096802,946.014038 1127.921509,952.722412 
	C1144.416748,962.945190 1151.822510,978.587219 1153.834351,997.147034 
	C1154.526611,1003.533386 1153.944458,1010.057922 1153.944458,1017.001953 
	C1138.378296,1017.001953 1122.765747,1017.001892 1107.153320,1017.001892 
	C1091.501221,1017.001892 1075.849243,1017.001953 1060.220825,1017.001953 
	C1059.023071,1030.492310 1068.174194,1043.006348 1082.077148,1047.171997 
	C1097.357544,1051.750366 1112.044922,1045.956055 1119.364868,1032.245605 
M1087.499634,993.528625 
	C1097.911011,993.528625 1108.322388,993.528625 1118.762329,993.528625 
	C1117.650146,977.521606 1106.259399,968.365601 1088.662842,969.013000 
	C1075.798950,969.486206 1062.421509,977.377808 1061.155151,993.528564 
	C1069.622070,993.528564 1078.060791,993.528564 1087.499634,993.528625 
z"/>
<path fill="#020202" opacity="1.000000" stroke="none" 
	d="
M804.693726,949.287231 
	C835.230652,961.579163 846.156494,989.468750 843.458801,1018.161011 
	C839.743225,1057.680298 809.268921,1077.223145 772.476257,1076.746948 
	C750.387817,1076.461060 730.738159,1069.893921 716.610229,1051.801636 
	C687.779114,1014.880371 705.966919,958.863770 750.833374,946.719299 
	C768.769836,941.864319 786.756409,942.728943 804.693726,949.287231 
M798.765625,982.756897 
	C784.185791,967.609985 759.341614,968.378845 746.955261,984.633545 
	C738.981262,995.097900 737.890076,1007.196228 740.052551,1019.770569 
	C742.542358,1034.248779 752.757263,1045.133423 766.261475,1047.829712 
	C780.246887,1050.622192 794.918701,1044.573975 802.312927,1032.968262 
	C811.293579,1018.872437 809.908752,996.629089 798.765625,982.756897 
z"/>
<path fill="#020202" opacity="1.000000" stroke="none" 
	d="
M584.162292,1064.837158 
	C547.183777,1040.436157 546.396484,973.782166 590.159241,952.227234 
	C616.704529,939.152588 643.586060,939.623657 668.548401,957.400940 
	C678.816650,964.713562 687.066467,979.687317 687.875183,990.817383 
	C677.177307,992.022949 666.466858,993.229858 657.406982,994.250793 
	C652.478088,987.977356 649.160217,981.428772 643.891663,977.488342 
	C628.592468,966.045776 605.332947,972.218628 597.230835,989.615234 
	C590.530029,1004.003235 590.807312,1018.871094 598.454285,1032.850098 
	C604.820068,1044.487305 615.355957,1049.302490 628.609375,1047.958862 
	C641.119873,1046.690430 650.254150,1040.954102 654.373291,1028.546265 
	C654.632690,1027.765015 655.007751,1027.022095 655.527954,1025.790039 
	C666.230530,1026.993408 677.065063,1028.211670 688.344727,1029.479980 
	C685.211975,1044.799316 677.752502,1056.769897 665.233521,1065.296387 
	C642.428467,1080.828613 608.292114,1080.607544 584.162292,1064.837158 
z"/>
<path fill="#010101" opacity="1.000000" stroke="none" 
	d="
M1457.101562,946.539917 
	C1463.549561,945.968201 1469.997803,947.007080 1475.981689,943.633057 
	C1482.248169,940.099731 1484.818848,934.506226 1485.042114,927.737427 
	C1485.287231,920.302734 1485.097900,912.853699 1485.097900,905.204834 
	C1496.141602,905.204834 1506.888916,905.204834 1518.094727,905.204834 
	C1518.094727,918.624512 1518.094727,932.003662 1518.094727,945.939087 
	C1527.071045,945.939087 1535.616455,945.939087 1544.494507,945.939087 
	C1544.494507,955.381470 1544.494507,964.269409 1544.494507,973.700684 
	C1535.944458,973.700684 1527.381470,973.700684 1518.274658,973.700684 
	C1518.274658,976.679077 1518.274536,979.126709 1518.274658,981.574341 
	C1518.275024,997.219177 1518.223389,1012.864319 1518.291260,1028.508789 
	C1518.352173,1042.572754 1522.837036,1046.985596 1536.818848,1046.992676 
	C1539.294678,1046.993896 1541.770508,1046.992920 1544.861816,1046.992920 
	C1544.861816,1052.551025 1544.861816,1057.815674 1544.957764,1063.539551 
	C1545.053589,1067.133179 1545.053589,1070.267578 1545.053589,1074.278198 
	C1531.274780,1073.488525 1517.773804,1076.154663 1504.760742,1071.571411 
	C1490.432007,1066.524780 1482.311401,1054.057495 1482.091797,1036.878052 
	C1481.849487,1017.920959 1482.013794,998.958679 1482.001343,979.998596 
	C1482.000122,978.181763 1482.001221,976.364990 1482.001221,974.093506 
	C1473.795776,974.093506 1465.746704,974.093506 1457.001587,974.093506 
	C1457.001587,964.769165 1457.001587,955.881531 1457.101562,946.539917 
z"/>
<path fill="#010101" opacity="1.000000" stroke="none" 
	d="
M1436.193848,992.000122 
	C1436.173462,1019.294250 1436.154297,1046.088379 1436.116089,1072.882446 
	C1436.115723,1073.165283 1435.866211,1073.447876 1435.638916,1073.930054 
	C1424.008301,1073.930054 1412.285767,1073.930054 1400.349121,1073.930054 
	C1400.349121,1031.351807 1400.349121,989.008301 1400.349121,946.424500 
	C1412.315308,946.424500 1424.033081,946.424500 1436.193970,946.424500 
	C1436.193970,961.618958 1436.193970,976.559509 1436.193848,992.000122 
z"/>
<path fill="#020202" opacity="1.000000" stroke="none" 
	d="
M1413.707031,886.208740 
	C1428.351196,884.394592 1436.900635,892.877258 1438.318237,902.869873 
	C1438.958496,907.383728 1436.817505,912.292175 1435.914551,917.391174 
	C1429.945557,925.425171 1422.314331,928.857727 1412.737427,926.264221 
	C1403.200928,923.681519 1397.709839,915.897095 1397.770020,905.838989 
	C1397.824951,896.663635 1403.724609,889.341064 1413.707031,886.208740 
z"/>
<path fill="#010101" opacity="1.000000" stroke="none" 
	d="
M1572.519287,1040.999512 
	C1572.519165,988.175232 1572.519165,935.850891 1572.519165,883.261108 
	C1584.343384,883.261108 1595.960693,883.261108 1608.087158,883.261108 
	C1608.087158,908.725708 1608.087158,934.280823 1608.087158,960.658081 
	C1609.525269,959.631836 1610.322876,959.210632 1610.936279,958.603333 
	C1626.756592,942.940308 1655.998779,938.830383 1675.476685,949.724365 
	C1688.082275,956.774658 1693.950439,968.386475 1694.877563,982.142822 
	C1695.895508,997.246033 1695.713623,1012.436584 1695.851807,1027.590820 
	C1695.991455,1042.895264 1695.882690,1058.202026 1695.882690,1073.840088 
	C1683.854614,1073.840088 1672.133545,1073.840088 1659.877808,1073.840088 
	C1659.877808,1072.065430 1659.877808,1070.288696 1659.877686,1068.511841 
	C1659.877319,1045.845337 1659.985474,1023.177917 1659.787964,1000.513123 
	C1659.746948,995.806641 1659.060303,990.976379 1657.815796,986.437622 
	C1655.432251,977.745178 1648.313110,973.935669 1640.273193,972.947266 
	C1630.319336,971.723694 1620.797607,973.725891 1614.192017,982.362061 
	C1609.370239,988.666138 1608.341919,996.194519 1608.330200,1003.884155 
	C1608.297485,1025.384033 1608.314209,1046.883911 1608.311523,1068.383789 
	C1608.311279,1070.167236 1608.311523,1071.950684 1608.311523,1073.950562 
	C1596.261841,1073.950562 1584.673096,1073.950562 1572.519287,1073.950562 
	C1572.519287,1063.033203 1572.519287,1052.266479 1572.519287,1040.999512 
z"/>
<path fill="#020202" opacity="1.000000" stroke="none" 
	d="
M2107.758301,1036.243652 
	C2099.414307,1008.920593 2101.321777,983.757263 2121.798340,962.518005 
	C2132.895264,951.007690 2147.371582,945.971680 2162.979492,944.377502 
	C2180.547607,942.583069 2197.612305,944.573303 2213.208008,953.562439 
	C2230.228760,963.372925 2239.659424,978.511841 2242.426270,997.719666 
	C2245.694824,1020.406555 2241.909180,1041.389282 2224.850830,1058.067261 
	C2210.873535,1071.733154 2193.222412,1076.607178 2174.155762,1076.762695 
	C2153.795898,1076.928711 2134.999268,1071.878662 2120.659668,1056.605835 
	C2115.339844,1050.939819 2112.086914,1043.332886 2107.758301,1036.243652 
M2189.459473,975.911865 
	C2168.579834,965.842896 2146.123291,975.521606 2140.505859,997.457825 
	C2139.051514,1003.136597 2138.668701,1009.376465 2139.217773,1015.224915 
	C2140.560547,1029.532104 2146.604980,1041.205078 2161.142822,1046.178955 
	C2174.632812,1050.794678 2187.252197,1048.587158 2197.561523,1038.479004 
	C2213.466797,1022.884216 2211.407227,987.263428 2189.459473,975.911865 
z"/>
<path fill="#020202" opacity="1.000000" stroke="none" 
	d="
M1890.797852,1006.780762 
	C1904.275879,1003.083984 1917.407837,999.538208 1930.542480,996.002258 
	C1933.267700,995.268616 1936.041748,994.693359 1938.725952,993.834900 
	C1947.601318,990.996582 1950.230469,982.669189 1944.222412,975.462341 
	C1942.304077,973.161194 1939.335815,970.739563 1936.566040,970.343567 
	C1930.087158,969.417297 1923.288086,968.711426 1916.892334,969.695679 
	C1907.266602,971.177002 1902.372803,978.236938 1900.642334,987.984131 
	C1890.110107,986.071167 1879.733521,984.186523 1869.067749,982.249329 
	C1872.583496,964.130798 1883.040405,952.475220 1899.994141,947.426758 
	C1917.377808,942.250305 1935.207153,942.013733 1952.709106,947.171326 
	C1969.935913,952.247681 1980.021851,964.971436 1980.960205,982.965149 
	C1981.696777,997.089966 1981.482422,1011.265381 1981.642456,1025.418945 
	C1981.817261,1040.884644 1980.930054,1056.417969 1984.750854,1071.641113 
	C1984.899902,1072.235352 1984.689697,1072.919678 1984.626465,1073.866089 
	C1973.589233,1073.866089 1962.661133,1073.866089 1951.265625,1073.866089 
	C1950.343750,1069.815063 1949.374756,1065.556763 1948.232178,1060.535645 
	C1940.110718,1069.200684 1930.380371,1073.491943 1919.594849,1075.520508 
	C1907.575806,1077.781128 1895.742432,1077.575195 1884.510986,1071.935791 
	C1877.521118,1068.426147 1872.372192,1063.100952 1869.889648,1055.655273 
	C1864.226807,1038.670654 1866.946899,1018.905396 1886.927246,1008.791260 
	C1888.112061,1008.191528 1889.277954,1007.554749 1890.797852,1006.780762 
M1935.946167,1019.432678 
	C1934.026245,1019.969666 1932.099243,1020.482300 1930.187866,1021.048157 
	C1923.502930,1023.027039 1916.690796,1024.670776 1910.180298,1027.116089 
	C1903.921631,1029.466675 1901.463989,1033.845215 1901.834961,1039.850586 
	C1902.193604,1045.656128 1905.035645,1049.781372 1911.372192,1051.067627 
	C1916.272705,1052.062378 1921.749756,1052.397949 1926.556641,1051.267334 
	C1941.434448,1047.767700 1950.383667,1033.078125 1948.689331,1015.979736 
	C1944.672974,1017.052002 1940.694824,1018.114075 1935.946167,1019.432678 
z"/>
<path fill="#020202" opacity="1.000000" stroke="none" 
	d="
M1811.243652,1073.188965 
	C1793.349121,1078.678101 1775.906860,1078.193115 1759.047729,1071.243164 
	C1733.195923,1060.586182 1719.429565,1038.453003 1719.655762,1009.309509 
	C1719.947266,971.757141 1746.443604,944.870667 1784.032715,943.914001 
	C1795.970581,943.610168 1807.573853,944.795044 1818.651245,949.791687 
	C1836.411743,957.803040 1846.490234,971.737427 1851.058472,990.735168 
	C1839.960815,991.993469 1829.115845,993.223022 1818.136963,994.467834 
	C1817.234497,992.173950 1816.584229,990.114807 1815.643921,988.197876 
	C1809.924683,976.538452 1800.080322,971.805420 1787.584229,972.055115 
	C1774.120117,972.324036 1764.317383,978.696289 1759.078125,991.095642 
	C1753.709351,1003.801270 1754.018311,1016.850708 1759.252075,1029.523193 
	C1764.239868,1041.599976 1775.404175,1048.530884 1787.925537,1048.127686 
	C1803.500122,1047.626343 1811.846313,1041.832642 1817.180786,1027.844116 
	C1817.413574,1027.233765 1817.805542,1026.684082 1818.291138,1025.800659 
	C1828.963623,1026.998779 1839.684814,1028.202393 1850.401245,1029.405396 
	C1849.022339,1046.172363 1834.295654,1066.602173 1811.243652,1073.188965 
z"/>
<path fill="#050505" opacity="1.000000" stroke="none" 
	d="
M2016.388916,990.999756 
	C2016.388916,975.883423 2016.388916,961.267151 2016.388916,946.402222 
	C2028.006470,946.402222 2039.092651,946.402222 2050.716309,946.402222 
	C2050.716309,952.454285 2050.716309,958.495361 2050.716309,965.619934 
	C2062.005615,951.893616 2075.613770,945.328796 2092.492676,944.723206 
	C2092.492676,955.597351 2092.492676,965.976196 2092.492676,976.413391 
	C2087.475098,976.949951 2082.692871,977.313843 2077.956299,977.994995 
	C2062.483643,980.219849 2053.537354,989.305542 2053.064453,1004.943848 
	C2052.425293,1026.077515 2052.733154,1047.239868 2052.636719,1068.389893 
	C2052.628662,1070.176147 2052.635742,1071.962524 2052.635742,1073.965332 
	C2040.416138,1073.965332 2028.655518,1073.965332 2016.388794,1073.965332 
	C2016.388794,1046.352783 2016.388794,1018.926270 2016.388916,990.999756 
z"/>
<path fill="#DDDDDD" opacity="1.000000" stroke="none" 
	d="
M1562.000000,286.172058 
	C1569.165039,286.172211 1575.830078,286.149689 1582.494995,286.177887 
	C1591.998169,286.218109 1595.859375,290.024902 1595.863525,299.513428 
	C1595.884277,346.501801 1595.870850,393.490173 1595.869629,440.478546 
	C1595.869263,452.789825 1595.869629,465.101105 1595.869629,477.725708 
	C1551.075684,474.943695 1511.846680,488.058746 1479.053589,518.351257 
	C1446.195190,548.704163 1429.867554,586.723389 1429.696411,632.156860 
	C1427.674805,632.156860 1425.911987,632.156860 1424.149170,632.156860 
	C1328.339600,632.156250 1232.529907,632.157166 1136.720337,632.152893 
	C1125.628784,632.152405 1122.329468,628.903076 1122.328979,617.970703 
	C1122.323608,512.163574 1122.322510,406.356415 1122.324707,300.549255 
	C1122.324829,289.670197 1125.793579,286.178619 1136.605591,286.178284 
	C1278.237061,286.173645 1419.868530,286.173431 1562.000000,286.172058 
M1159.044922,384.545197 
	C1182.245361,361.382599 1205.459106,338.233429 1228.633911,315.045319 
	C1232.953491,310.723236 1233.257812,306.253235 1229.690552,302.865479 
	C1226.371216,299.713104 1222.071167,300.205750 1217.906860,304.344025 
	C1209.289917,312.906982 1200.721924,321.519196 1192.126953,330.104523 
	C1174.230835,347.980652 1156.319580,365.841675 1138.439331,383.733673 
	C1134.018188,388.157745 1133.504761,392.468201 1136.843018,395.897125 
	C1140.184204,399.329010 1144.662598,398.855011 1149.006836,394.569153 
	C1152.205200,391.413788 1155.367554,388.221741 1159.044922,384.545197 
M1187.480591,316.908630 
	C1191.200562,312.156158 1191.378174,308.122284 1188.004150,305.020203 
	C1185.051147,302.305145 1180.814819,302.148010 1177.662231,305.241943 
	C1164.493896,318.164948 1151.432129,331.197540 1138.426025,344.284058 
	C1135.552734,347.175140 1134.925415,350.685760 1137.408691,354.238312 
	C1140.333496,358.422638 1145.636475,358.528381 1149.858276,354.353790 
	C1162.269165,342.081360 1174.601318,329.729065 1187.480591,316.908630 
M1368.758911,304.849579 
	C1363.134521,297.677490 1354.526855,297.321167 1349.856934,304.066956 
	C1346.817871,308.457062 1347.272583,314.574921 1350.914917,318.303619 
	C1354.574951,322.050446 1360.126831,322.811646 1364.626465,320.183563 
	C1370.012573,317.037659 1371.434326,312.328705 1368.758911,304.849579 
z"/>
<path fill="#DDDDDD" opacity="1.000000" stroke="none" 
	d="
M1621.975952,497.863129 
	C1660.413696,509.834961 1689.013428,533.074402 1707.483765,568.571838 
	C1733.866211,619.275391 1724.212891,684.904907 1684.647949,726.125671 
	C1662.664062,749.029480 1636.145020,762.956055 1605.006836,768.334106 
	C1531.648438,781.004089 1458.365723,728.194275 1446.892822,654.555115 
	C1440.863281,615.855347 1448.157837,580.037781 1472.034790,548.881714 
	C1504.316895,506.758179 1547.548828,488.356049 1600.536987,493.826111 
	C1607.611328,494.556427 1614.567261,496.434021 1621.975952,497.863129 
M1534.102173,583.608582 
	C1535.598999,582.042969 1537.116455,580.496460 1538.588745,578.908142 
	C1542.757568,574.410706 1543.212646,569.818604 1539.831909,566.620605 
	C1536.465332,563.436035 1531.580811,564.071899 1527.571655,568.314270 
	C1511.549927,585.267700 1495.535034,602.227600 1479.552246,619.217773 
	C1474.241089,624.863770 1474.248779,628.141663 1479.528198,633.751953 
	C1495.399658,650.617859 1511.296875,667.459473 1527.193237,684.301880 
	C1531.694214,689.070984 1536.232910,689.852539 1539.740479,686.510620 
	C1543.304932,683.114502 1542.823975,678.617065 1538.384033,673.874573 
	C1537.700928,673.144836 1536.997437,672.434204 1536.312012,671.706726 
	C1522.155884,656.686584 1508.000977,641.665344 1493.694214,626.483276 
	C1507.119507,612.241516 1520.369995,598.185059 1534.102173,583.608582 
M1653.071655,663.577209 
	C1662.436890,653.652161 1671.835938,643.758728 1681.154419,633.789978 
	C1686.642212,627.919250 1686.662231,625.117493 1681.242065,619.324951 
	C1668.507324,605.715027 1655.715088,592.158630 1642.930664,578.595154 
	C1639.163818,574.598755 1635.460571,570.531555 1631.513184,566.719543 
	C1628.459595,563.770752 1623.502563,563.995850 1620.708862,566.840515 
	C1617.986816,569.612122 1617.950439,573.919678 1620.687744,577.237000 
	C1621.638794,578.389526 1622.732544,579.424316 1623.759644,580.514282 
	C1638.136963,595.773193 1652.514160,611.032227 1667.011719,626.418945 
	C1665.820435,627.740234 1664.749512,628.973694 1663.630493,630.161926 
	C1649.825073,644.821289 1636.001099,659.463074 1622.208862,674.134705 
	C1617.975586,678.637939 1617.539795,683.065369 1620.881348,686.383484 
	C1624.334717,689.812439 1628.938721,689.120605 1633.395386,684.427124 
	C1639.812378,677.668823 1646.191650,670.874634 1653.071655,663.577209 
M1592.734497,573.208313 
	C1587.306519,587.295105 1581.869141,601.378296 1576.452881,615.469604 
	C1568.655396,635.756897 1560.895386,656.058716 1553.065308,676.333435 
	C1551.495728,680.397705 1551.919312,683.936584 1555.602051,686.486023 
	C1558.708130,688.636353 1562.040894,688.313782 1564.725342,685.721802 
	C1566.092163,684.401917 1567.055664,682.492981 1567.754517,680.678223 
	C1578.903931,651.726013 1589.977417,622.744507 1601.077026,593.773193 
	C1603.273193,588.041199 1605.606689,582.359741 1607.692383,576.588257 
	C1609.541992,571.470459 1607.991089,567.596619 1603.671875,565.799927 
	C1599.708008,564.151123 1596.066162,565.916321 1593.717529,570.643066 
	C1593.422974,571.236084 1593.209229,571.869202 1592.734497,573.208313 
z"/>
<path fill="#DADADA" opacity="1.000000" stroke="none" 
	d="
M1220.000488,647.509216 
	C1288.626465,647.507629 1356.752563,647.535645 1424.878418,647.431274 
	C1428.979858,647.424988 1430.706543,648.074402 1431.442261,652.821655 
	C1433.036865,663.111267 1435.838135,673.213867 1438.185913,683.568604 
	C1321.238647,683.568604 1203.918091,683.568604 1086.023926,683.568604 
	C1083.949707,671.852478 1081.853394,660.011902 1079.639771,647.509216 
	C1126.674683,647.509216 1173.087524,647.509216 1220.000488,647.509216 
M1412.101196,670.608032 
	C1416.252075,663.610840 1413.157227,658.043396 1404.940063,658.028687 
	C1374.441284,657.974121 1343.942505,657.992737 1313.443726,658.018494 
	C1307.561523,658.023438 1304.146606,660.752136 1304.021362,665.336365 
	C1303.890503,670.133484 1307.430054,673.137268 1313.505859,673.143494 
	C1343.838013,673.174622 1374.170288,673.201233 1404.501831,673.071350 
	C1406.841797,673.061340 1409.176514,671.831177 1412.101196,670.608032 
z"/>
<path fill="#DBDBDB" opacity="1.000000" stroke="none" 
	d="
M938.139160,974.461243 
	C965.323975,980.924194 969.961670,1015.678955 957.597595,1033.324829 
	C944.402527,1052.156616 915.674194,1052.201172 902.728760,1033.227661 
	C894.413879,1021.040894 893.984985,1000.951416 902.104858,988.685181 
	C910.622192,975.818420 922.985779,971.989197 938.139160,974.461243 
z"/>
<path fill="#D5D5D5" opacity="1.000000" stroke="none" 
	d="
M1086.999512,993.528564 
	C1078.060791,993.528564 1069.622070,993.528564 1061.155151,993.528564 
	C1062.421509,977.377808 1075.798950,969.486206 1088.662842,969.013000 
	C1106.259399,968.365601 1117.650146,977.521606 1118.762329,993.528625 
	C1108.322388,993.528625 1097.911011,993.528625 1086.999512,993.528564 
z"/>
<path fill="#DADADA" opacity="1.000000" stroke="none" 
	d="
M798.993591,983.035583 
	C809.908752,996.629089 811.293579,1018.872437 802.312927,1032.968262 
	C794.918701,1044.573975 780.246887,1050.622192 766.261475,1047.829712 
	C752.757263,1045.133423 742.542358,1034.248779 740.052551,1019.770569 
	C737.890076,1007.196228 738.981262,995.097900 746.955261,984.633545 
	C759.341614,968.378845 784.185791,967.609985 798.993591,983.035583 
z"/>
<path fill="#DDDDDD" opacity="1.000000" stroke="none" 
	d="
M2189.807129,976.046753 
	C2211.407227,987.263428 2213.466797,1022.884216 2197.561523,1038.479004 
	C2187.252197,1048.587158 2174.632812,1050.794678 2161.142822,1046.178955 
	C2146.604980,1041.205078 2140.560547,1029.532104 2139.217773,1015.224915 
	C2138.668701,1009.376465 2139.051514,1003.136597 2140.505859,997.457825 
	C2146.123291,975.521606 2168.579834,965.842896 2189.807129,976.046753 
z"/>
<path fill="#DBDBDB" opacity="1.000000" stroke="none" 
	d="
M1936.331421,1019.304443 
	C1940.694824,1018.114075 1944.672974,1017.052002 1948.689331,1015.979736 
	C1950.383667,1033.078125 1941.434448,1047.767700 1926.556641,1051.267334 
	C1921.749756,1052.397949 1916.272705,1052.062378 1911.372192,1051.067627 
	C1905.035645,1049.781372 1902.193604,1045.656128 1901.834961,1039.850586 
	C1901.463989,1033.845215 1903.921631,1029.466675 1910.180298,1027.116089 
	C1916.690796,1024.670776 1923.502930,1023.027039 1930.187866,1021.048157 
	C1932.099243,1020.482300 1934.026245,1019.969666 1936.331421,1019.304443 
z"/>
<path fill="#010101" opacity="1.000000" stroke="none" 
	d="
M1158.795410,384.795624 
	C1155.367554,388.221741 1152.205200,391.413788 1149.006836,394.569153 
	C1144.662598,398.855011 1140.184204,399.329010 1136.843018,395.897125 
	C1133.504761,392.468201 1134.018188,388.157745 1138.439331,383.733673 
	C1156.319580,365.841675 1174.230835,347.980652 1192.126953,330.104523 
	C1200.721924,321.519196 1209.289917,312.906982 1217.906860,304.344025 
	C1222.071167,300.205750 1226.371216,299.713104 1229.690552,302.865479 
	C1233.257812,306.253235 1232.953491,310.723236 1228.633911,315.045319 
	C1205.459106,338.233429 1182.245361,361.382599 1158.795410,384.795624 
z"/>
<path fill="#060606" opacity="1.000000" stroke="none" 
	d="
M1187.222412,317.158325 
	C1174.601318,329.729065 1162.269165,342.081360 1149.858276,354.353790 
	C1145.636475,358.528381 1140.333496,358.422638 1137.408691,354.238312 
	C1134.925415,350.685760 1135.552734,347.175140 1138.426025,344.284058 
	C1151.432129,331.197540 1164.493896,318.164948 1177.662231,305.241943 
	C1180.814819,302.148010 1185.051147,302.305145 1188.004150,305.020203 
	C1191.378174,308.122284 1191.200562,312.156158 1187.222412,317.158325 
z"/>
<path fill="#060606" opacity="1.000000" stroke="none" 
	d="
M1368.904541,305.190826 
	C1371.434326,312.328705 1370.012573,317.037659 1364.626465,320.183563 
	C1360.126831,322.811646 1354.574951,322.050446 1350.914917,318.303619 
	C1347.272583,314.574921 1346.817871,308.457062 1349.856934,304.066956 
	C1354.526855,297.321167 1363.134521,297.677490 1368.904541,305.190826 
M1360.196655,314.058380 
	C1360.944336,312.356140 1362.056030,310.687653 1362.218750,308.931152 
	C1362.267944,308.401398 1359.541992,306.923126 1358.343262,307.162262 
	C1357.131348,307.404053 1355.170044,309.917603 1355.385376,310.254669 
	C1356.380005,311.811005 1358.019165,312.955475 1360.196655,314.058380 
z"/>
<path fill="#030303" opacity="1.000000" stroke="none" 
	d="
M1533.861328,583.868652 
	C1520.369995,598.185059 1507.119507,612.241516 1493.694214,626.483276 
	C1508.000977,641.665344 1522.155884,656.686584 1536.312012,671.706726 
	C1536.997437,672.434204 1537.700928,673.144836 1538.384033,673.874573 
	C1542.823975,678.617065 1543.304932,683.114502 1539.740479,686.510620 
	C1536.232910,689.852539 1531.694214,689.070984 1527.193237,684.301880 
	C1511.296875,667.459473 1495.399658,650.617859 1479.528198,633.751953 
	C1474.248779,628.141663 1474.241089,624.863770 1479.552246,619.217773 
	C1495.535034,602.227600 1511.549927,585.267700 1527.571655,568.314270 
	C1531.580811,564.071899 1536.465332,563.436035 1539.831909,566.620605 
	C1543.212646,569.818604 1542.757568,574.410706 1538.588745,578.908142 
	C1537.116455,580.496460 1535.598999,582.042969 1533.861328,583.868652 
z"/>
<path fill="#030303" opacity="1.000000" stroke="none" 
	d="
M1652.829346,663.836487 
	C1646.191650,670.874634 1639.812378,677.668823 1633.395386,684.427124 
	C1628.938721,689.120605 1624.334717,689.812439 1620.881348,686.383484 
	C1617.539795,683.065369 1617.975586,678.637939 1622.208862,674.134705 
	C1636.001099,659.463074 1649.825073,644.821289 1663.630493,630.161926 
	C1664.749512,628.973694 1665.820435,627.740234 1667.011719,626.418945 
	C1652.514160,611.032227 1638.136963,595.773193 1623.759644,580.514282 
	C1622.732544,579.424316 1621.638794,578.389526 1620.687744,577.237000 
	C1617.950439,573.919678 1617.986816,569.612122 1620.708862,566.840515 
	C1623.502563,563.995850 1628.459595,563.770752 1631.513184,566.719543 
	C1635.460571,570.531555 1639.163818,574.598755 1642.930664,578.595154 
	C1655.715088,592.158630 1668.507324,605.715027 1681.242065,619.324951 
	C1686.662231,625.117493 1686.642212,627.919250 1681.154419,633.789978 
	C1671.835938,643.758728 1662.436890,653.652161 1652.829346,663.836487 
z"/>
<path fill="#040404" opacity="1.000000" stroke="none" 
	d="
M1592.846191,572.846069 
	C1593.209229,571.869202 1593.422974,571.236084 1593.717529,570.643066 
	C1596.066162,565.916321 1599.708008,564.151123 1603.671875,565.799927 
	C1607.991089,567.596619 1609.541992,571.470459 1607.692383,576.588257 
	C1605.606689,582.359741 1603.273193,588.041199 1601.077026,593.773193 
	C1589.977417,622.744507 1578.903931,651.726013 1567.754517,680.678223 
	C1567.055664,682.492981 1566.092163,684.401917 1564.725342,685.721802 
	C1562.040894,688.313782 1558.708130,688.636353 1555.602051,686.486023 
	C1551.919312,683.936584 1551.495728,680.397705 1553.065308,676.333435 
	C1560.895386,656.058716 1568.655396,635.756897 1576.452881,615.469604 
	C1581.869141,601.378296 1587.306519,587.295105 1592.846191,572.846069 
z"/>
<path fill="#010101" opacity="1.000000" stroke="none" 
	d="
M1411.807373,670.888123 
	C1409.176514,671.831177 1406.841797,673.061340 1404.501831,673.071350 
	C1374.170288,673.201233 1343.838013,673.174622 1313.505859,673.143494 
	C1307.430054,673.137268 1303.890503,670.133484 1304.021362,665.336365 
	C1304.146606,660.752136 1307.561523,658.023438 1313.443726,658.018494 
	C1343.942505,657.992737 1374.441284,657.974121 1404.940063,658.028687 
	C1413.157227,658.043396 1416.252075,663.610840 1411.807373,670.888123 
z"/>
<path fill="#D5D5D5" opacity="1.000000" stroke="none" 
	d="
M1359.812012,314.152954 
	C1358.019165,312.955475 1356.380005,311.811005 1355.385376,310.254669 
	C1355.170044,309.917603 1357.131348,307.404053 1358.343262,307.162262 
	C1359.541992,306.923126 1362.267944,308.401398 1362.218750,308.931152 
	C1362.056030,310.687653 1360.944336,312.356140 1359.812012,314.152954 
z"/>
</svg>